<svg id="Capa_1" enable-background="new 0 0 512 512" height="512" viewBox="0 0 512 512" width="512" xmlns="http://www.w3.org/2000/svg"><path d="m280 266h30c5.522 0 10-4.477 10-10s-4.478-10-10-10h-30c-5.522 0-10 4.477-10 10s4.478 10 10 10z"/><path d="m220 246h-30c-5.522 0-10 4.477-10 10s4.478 10 10 10h30c5.522 0 10-4.477 10-10s-4.478-10-10-10z"/><circle cx="130" cy="10" r="10"/><path d="m30 512h200c16.542 0 30-13.458 30-30v-156h90c16.542 0 30-13.458 30-30v-30h52v20c0 4.044 2.437 7.691 6.173 9.239 3.737 1.549 8.038.692 10.898-2.167l60-60c3.905-3.905 3.905-10.237 0-14.143l-60-60c-2.86-2.86-7.162-3.714-10.898-2.167s-6.173 5.194-6.173 9.238v20h-52v-30c0-16.542-13.458-30-30-30h-90v-96c0-16.542-13.458-30-30-30h-55c-5.522 0-10 4.477-10 10s4.478 10 10 10h55c5.514 0 10 4.486 10 10v96h-120c-16.542 0-30 13.458-30 30v140c0 16.542 13.458 30 30 30h120v106h-220v-402c0-5.514 4.486-10 10-10h55c5.522 0 10-4.477 10-10s-4.478-10-10-10h-55c-16.542 0-30 13.458-30 30v452c0 16.542 13.458 30 30 30zm412-306c5.522 0 10-4.477 10-10v-5.858l35.857 35.858-35.857 35.858v-5.858c0-5.523-4.478-10-10-10h-62v-40zm-322-60h230c5.514 0 10 4.486 10 10v30h-250v-30c0-5.514 4.486-10 10-10zm-10 150v-90h250v90c0 5.514-4.486 10-10 10h-230c-5.514 0-10-4.486-10-10zm130 156v30c0 5.514-4.486 10-10 10h-200c-5.514 0-10-4.486-10-10v-30z"/></svg>